<mxfile host="Electron" modified="2024-05-01T13:40:18.309Z" agent="Mozilla/5.0 (Windows NT 10.0; Win64; x64) AppleWebKit/537.36 (KHTML, like Gecko) draw.io/24.0.4 Chrome/120.0.6099.109 Electron/28.1.0 Safari/537.36" etag="0i5Kn3NoNGIxB7whNADf" version="24.0.4" type="device">
  <diagram name="Pagina-1" id="4e3HDjeia6ATZG7WbmJu">
    <mxGraphModel dx="832" dy="507" grid="1" gridSize="10" guides="1" tooltips="1" connect="1" arrows="1" fold="1" page="1" pageScale="1" pageWidth="827" pageHeight="1169" math="0" shadow="0">
      <root>
        <mxCell id="0" />
        <mxCell id="1" parent="0" />
        <mxCell id="LnkGCRm6WHFx4yKFHxbl-25" style="edgeStyle=orthogonalEdgeStyle;rounded=0;orthogonalLoop=1;jettySize=auto;html=1;exitX=0;exitY=0;exitDx=0;exitDy=0;entryX=0.01;entryY=0.628;entryDx=0;entryDy=0;entryPerimeter=0;" edge="1" parent="1" source="LnkGCRm6WHFx4yKFHxbl-1" target="LnkGCRm6WHFx4yKFHxbl-23">
          <mxGeometry relative="1" as="geometry">
            <Array as="points">
              <mxPoint x="550" y="106" />
            </Array>
          </mxGeometry>
        </mxCell>
        <mxCell id="LnkGCRm6WHFx4yKFHxbl-26" style="edgeStyle=orthogonalEdgeStyle;rounded=0;orthogonalLoop=1;jettySize=auto;html=1;exitX=0;exitY=0;exitDx=0;exitDy=0;entryX=0.001;entryY=0.581;entryDx=0;entryDy=0;entryPerimeter=0;" edge="1" parent="1" source="LnkGCRm6WHFx4yKFHxbl-1" target="LnkGCRm6WHFx4yKFHxbl-21">
          <mxGeometry relative="1" as="geometry">
            <Array as="points">
              <mxPoint x="550" y="80" />
            </Array>
          </mxGeometry>
        </mxCell>
        <mxCell id="LnkGCRm6WHFx4yKFHxbl-27" style="edgeStyle=orthogonalEdgeStyle;rounded=0;orthogonalLoop=1;jettySize=auto;html=1;exitX=0;exitY=0;exitDx=0;exitDy=0;entryX=0.024;entryY=0.579;entryDx=0;entryDy=0;entryPerimeter=0;" edge="1" parent="1" source="LnkGCRm6WHFx4yKFHxbl-1" target="LnkGCRm6WHFx4yKFHxbl-19">
          <mxGeometry relative="1" as="geometry">
            <Array as="points">
              <mxPoint x="550" y="57" />
            </Array>
          </mxGeometry>
        </mxCell>
        <mxCell id="LnkGCRm6WHFx4yKFHxbl-33" style="edgeStyle=orthogonalEdgeStyle;rounded=0;orthogonalLoop=1;jettySize=auto;html=1;exitX=0;exitY=0.5;exitDx=0;exitDy=0;entryX=1;entryY=0.5;entryDx=0;entryDy=0;endArrow=classic;endFill=1;" edge="1" parent="1" source="LnkGCRm6WHFx4yKFHxbl-1" target="LnkGCRm6WHFx4yKFHxbl-31">
          <mxGeometry relative="1" as="geometry" />
        </mxCell>
        <mxCell id="LnkGCRm6WHFx4yKFHxbl-1" value="MESSAGGI" style="rounded=0;whiteSpace=wrap;html=1;" vertex="1" parent="1">
          <mxGeometry x="550" y="130" width="120" height="60" as="geometry" />
        </mxCell>
        <mxCell id="LnkGCRm6WHFx4yKFHxbl-29" style="edgeStyle=orthogonalEdgeStyle;rounded=0;orthogonalLoop=1;jettySize=auto;html=1;exitX=0;exitY=0;exitDx=0;exitDy=0;entryX=0;entryY=0.5;entryDx=0;entryDy=0;" edge="1" parent="1" source="LnkGCRm6WHFx4yKFHxbl-2" target="LnkGCRm6WHFx4yKFHxbl-6">
          <mxGeometry relative="1" as="geometry" />
        </mxCell>
        <mxCell id="LnkGCRm6WHFx4yKFHxbl-30" style="edgeStyle=orthogonalEdgeStyle;rounded=0;orthogonalLoop=1;jettySize=auto;html=1;exitX=0;exitY=0;exitDx=0;exitDy=0;entryX=0;entryY=0.5;entryDx=0;entryDy=0;" edge="1" parent="1" source="LnkGCRm6WHFx4yKFHxbl-2" target="LnkGCRm6WHFx4yKFHxbl-4">
          <mxGeometry relative="1" as="geometry" />
        </mxCell>
        <mxCell id="LnkGCRm6WHFx4yKFHxbl-32" style="edgeStyle=orthogonalEdgeStyle;rounded=0;orthogonalLoop=1;jettySize=auto;html=1;exitX=1;exitY=0.5;exitDx=0;exitDy=0;entryX=0;entryY=0.5;entryDx=0;entryDy=0;endArrow=doubleBlock;endFill=1;" edge="1" parent="1" source="LnkGCRm6WHFx4yKFHxbl-2" target="LnkGCRm6WHFx4yKFHxbl-31">
          <mxGeometry relative="1" as="geometry" />
        </mxCell>
        <mxCell id="LnkGCRm6WHFx4yKFHxbl-50" style="edgeStyle=orthogonalEdgeStyle;rounded=0;orthogonalLoop=1;jettySize=auto;html=1;exitX=0;exitY=0.5;exitDx=0;exitDy=0;entryX=0.5;entryY=0;entryDx=0;entryDy=0;endArrow=doubleBlock;endFill=1;" edge="1" parent="1" source="LnkGCRm6WHFx4yKFHxbl-2" target="LnkGCRm6WHFx4yKFHxbl-48">
          <mxGeometry relative="1" as="geometry" />
        </mxCell>
        <mxCell id="LnkGCRm6WHFx4yKFHxbl-2" value="ROOM" style="rounded=0;whiteSpace=wrap;html=1;" vertex="1" parent="1">
          <mxGeometry x="230" y="130" width="120" height="60" as="geometry" />
        </mxCell>
        <mxCell id="LnkGCRm6WHFx4yKFHxbl-46" style="edgeStyle=orthogonalEdgeStyle;rounded=0;orthogonalLoop=1;jettySize=auto;html=1;exitX=0;exitY=0;exitDx=0;exitDy=0;entryX=0;entryY=0.5;entryDx=0;entryDy=0;" edge="1" parent="1" source="LnkGCRm6WHFx4yKFHxbl-3" target="LnkGCRm6WHFx4yKFHxbl-35">
          <mxGeometry relative="1" as="geometry">
            <Array as="points">
              <mxPoint x="230" y="284" />
            </Array>
          </mxGeometry>
        </mxCell>
        <mxCell id="LnkGCRm6WHFx4yKFHxbl-47" style="edgeStyle=orthogonalEdgeStyle;rounded=0;orthogonalLoop=1;jettySize=auto;html=1;exitX=0;exitY=0;exitDx=0;exitDy=0;entryX=0;entryY=0.5;entryDx=0;entryDy=0;" edge="1" parent="1" source="LnkGCRm6WHFx4yKFHxbl-3" target="LnkGCRm6WHFx4yKFHxbl-36">
          <mxGeometry relative="1" as="geometry">
            <Array as="points">
              <mxPoint x="230" y="260" />
            </Array>
          </mxGeometry>
        </mxCell>
        <mxCell id="LnkGCRm6WHFx4yKFHxbl-49" style="edgeStyle=orthogonalEdgeStyle;rounded=0;orthogonalLoop=1;jettySize=auto;html=1;exitX=0;exitY=0.5;exitDx=0;exitDy=0;entryX=0.5;entryY=1;entryDx=0;entryDy=0;endArrow=doubleBlock;endFill=1;" edge="1" parent="1" source="LnkGCRm6WHFx4yKFHxbl-3" target="LnkGCRm6WHFx4yKFHxbl-48">
          <mxGeometry relative="1" as="geometry" />
        </mxCell>
        <mxCell id="LnkGCRm6WHFx4yKFHxbl-3" value="UTENTE" style="rounded=0;whiteSpace=wrap;html=1;" vertex="1" parent="1">
          <mxGeometry x="230" y="330" width="120" height="60" as="geometry" />
        </mxCell>
        <mxCell id="LnkGCRm6WHFx4yKFHxbl-4" value="" style="ellipse;whiteSpace=wrap;html=1;aspect=fixed;" vertex="1" parent="1">
          <mxGeometry x="281" y="68.5" width="20" height="20" as="geometry" />
        </mxCell>
        <mxCell id="LnkGCRm6WHFx4yKFHxbl-5" value="nome" style="text;html=1;align=left;verticalAlign=middle;whiteSpace=wrap;rounded=0;" vertex="1" parent="1">
          <mxGeometry x="301" y="66" width="60" height="25" as="geometry" />
        </mxCell>
        <mxCell id="LnkGCRm6WHFx4yKFHxbl-6" value="" style="ellipse;whiteSpace=wrap;html=1;aspect=fixed;" vertex="1" parent="1">
          <mxGeometry x="281" y="93.5" width="20" height="20" as="geometry" />
        </mxCell>
        <mxCell id="LnkGCRm6WHFx4yKFHxbl-7" value="partecipanti" style="text;html=1;align=left;verticalAlign=middle;whiteSpace=wrap;rounded=0;" vertex="1" parent="1">
          <mxGeometry x="301" y="91" width="70" height="25" as="geometry" />
        </mxCell>
        <mxCell id="LnkGCRm6WHFx4yKFHxbl-19" value="" style="ellipse;whiteSpace=wrap;html=1;aspect=fixed;" vertex="1" parent="1">
          <mxGeometry x="600" y="45" width="20" height="20" as="geometry" />
        </mxCell>
        <mxCell id="LnkGCRm6WHFx4yKFHxbl-20" value="contenuto" style="text;html=1;align=left;verticalAlign=middle;whiteSpace=wrap;rounded=0;" vertex="1" parent="1">
          <mxGeometry x="622" y="42.5" width="70" height="25" as="geometry" />
        </mxCell>
        <mxCell id="LnkGCRm6WHFx4yKFHxbl-21" value="" style="ellipse;whiteSpace=wrap;html=1;aspect=fixed;" vertex="1" parent="1">
          <mxGeometry x="600" y="68.5" width="20" height="20" as="geometry" />
        </mxCell>
        <mxCell id="LnkGCRm6WHFx4yKFHxbl-22" value="data" style="text;html=1;align=left;verticalAlign=middle;whiteSpace=wrap;rounded=0;" vertex="1" parent="1">
          <mxGeometry x="620" y="66" width="60" height="25" as="geometry" />
        </mxCell>
        <mxCell id="LnkGCRm6WHFx4yKFHxbl-23" value="" style="ellipse;whiteSpace=wrap;html=1;aspect=fixed;" vertex="1" parent="1">
          <mxGeometry x="600" y="93.5" width="20" height="20" as="geometry" />
        </mxCell>
        <mxCell id="LnkGCRm6WHFx4yKFHxbl-24" value="mittente" style="text;html=1;align=left;verticalAlign=middle;whiteSpace=wrap;rounded=0;" vertex="1" parent="1">
          <mxGeometry x="620" y="91" width="60" height="25" as="geometry" />
        </mxCell>
        <mxCell id="LnkGCRm6WHFx4yKFHxbl-31" value="contiene" style="rhombus;whiteSpace=wrap;html=1;" vertex="1" parent="1">
          <mxGeometry x="413.5" y="130" width="80" height="60" as="geometry" />
        </mxCell>
        <mxCell id="LnkGCRm6WHFx4yKFHxbl-34" value="" style="endArrow=none;html=1;rounded=0;" edge="1" parent="1">
          <mxGeometry width="50" height="50" relative="1" as="geometry">
            <mxPoint x="361" y="170" as="sourcePoint" />
            <mxPoint x="361" y="150" as="targetPoint" />
          </mxGeometry>
        </mxCell>
        <mxCell id="LnkGCRm6WHFx4yKFHxbl-35" value="" style="ellipse;whiteSpace=wrap;html=1;aspect=fixed;" vertex="1" parent="1">
          <mxGeometry x="279.5" y="274" width="20" height="20" as="geometry" />
        </mxCell>
        <mxCell id="LnkGCRm6WHFx4yKFHxbl-36" value="" style="ellipse;whiteSpace=wrap;html=1;aspect=fixed;" vertex="1" parent="1">
          <mxGeometry x="279.5" y="250" width="20" height="20" as="geometry" />
        </mxCell>
        <mxCell id="LnkGCRm6WHFx4yKFHxbl-37" value="" style="ellipse;whiteSpace=wrap;html=1;aspect=fixed;" vertex="1" parent="1">
          <mxGeometry x="279.5" y="298" width="20" height="20" as="geometry" />
        </mxCell>
        <mxCell id="LnkGCRm6WHFx4yKFHxbl-38" value="codice" style="text;html=1;align=left;verticalAlign=middle;whiteSpace=wrap;rounded=0;" vertex="1" parent="1">
          <mxGeometry x="299.5" y="252.5" width="49" height="15" as="geometry" />
        </mxCell>
        <mxCell id="LnkGCRm6WHFx4yKFHxbl-39" value="username" style="text;html=1;align=left;verticalAlign=middle;whiteSpace=wrap;rounded=0;" vertex="1" parent="1">
          <mxGeometry x="299.5" y="276.5" width="49" height="15" as="geometry" />
        </mxCell>
        <mxCell id="LnkGCRm6WHFx4yKFHxbl-40" value="password" style="text;html=1;align=left;verticalAlign=middle;whiteSpace=wrap;rounded=0;" vertex="1" parent="1">
          <mxGeometry x="299.5" y="300.5" width="49" height="15" as="geometry" />
        </mxCell>
        <mxCell id="LnkGCRm6WHFx4yKFHxbl-45" style="edgeStyle=orthogonalEdgeStyle;rounded=0;orthogonalLoop=1;jettySize=auto;html=1;exitX=0;exitY=0;exitDx=0;exitDy=0;entryX=0.029;entryY=0.43;entryDx=0;entryDy=0;entryPerimeter=0;" edge="1" parent="1" source="LnkGCRm6WHFx4yKFHxbl-3" target="LnkGCRm6WHFx4yKFHxbl-37">
          <mxGeometry relative="1" as="geometry">
            <Array as="points">
              <mxPoint x="230" y="307" />
            </Array>
          </mxGeometry>
        </mxCell>
        <mxCell id="LnkGCRm6WHFx4yKFHxbl-48" value="partecipare" style="rhombus;whiteSpace=wrap;html=1;" vertex="1" parent="1">
          <mxGeometry x="70" y="218" width="80" height="80" as="geometry" />
        </mxCell>
      </root>
    </mxGraphModel>
  </diagram>
</mxfile>
